<?xml version="1.0" encoding="UTF-8"?>
<svg xmlns="http://www.w3.org/2000/svg" version="1.1" viewBox="0 0 200 200">
  <defs>
    <style>
      .cls-1 {
        fill: #fff;
        fill-rule: evenodd;
      }
    </style>
  </defs>
  <!-- Generator: Adobe Illustrator 28.6.0, SVG Export Plug-In . SVG Version: 1.2.0 Build 709)  -->
  <g>
    <g id="Layer_1">
      <path class="cls-1" d="M42.9,42.9c3.9-3.9,10.2-3.9,14.1,0l42.9,42.9,42.9-42.9c3.8-4,10.2-4.1,14.1-.2,4,3.8,4.1,10.2.2,14.1,0,0-.2.2-.2.2l-42.9,42.9,42.9,42.9c3.8,4,3.7,10.3-.2,14.1-3.9,3.7-10,3.7-13.9,0l-42.9-42.9-42.9,42.9c-4,3.8-10.3,3.7-14.1-.2-3.7-3.9-3.7-10,0-13.9l42.9-42.9-42.9-42.9c-3.9-3.9-3.9-10.2,0-14.1Z"/>
    </g>
  </g>
</svg>