<?xml version="1.0" encoding="UTF-8"?>
<svg xmlns="http://www.w3.org/2000/svg" version="1.1" viewBox="0 0 200 200">
  <defs>
    <style>
      .cls-1 {
        fill: red;
        fill-rule: evenodd;
      }

      .cls-2 {
        fill: #fff;
      }
    </style>
  </defs>
  <!-- Generator: Adobe Illustrator 28.6.0, SVG Export Plug-In . SVG Version: 1.2.0 Build 709)  -->
  <g>
    <g id="Layer_1">
      <rect class="cls-2" x="60" y="53" width="82" height="93"/>
      <path class="cls-1" d="M100,180c44.2,0,80-35.8,80-80S144.2,20,100,20,20,55.8,20,100s35.8,80,80,80ZM87.1,72.9c-4-3.8-10.3-3.7-14.1.2-3.7,3.9-3.7,10,0,13.9l12.9,12.9-12.9,12.9c-4,3.8-4.1,10.2-.2,14.1s10.2,4.1,14.1.2c0,0,.2-.2.2-.2l12.9-12.9,12.9,12.9c4,3.8,10.3,3.7,14.1-.2,3.7-3.9,3.7-10,0-13.9l-12.9-12.9,12.9-12.9c3.8-4,3.7-10.3-.2-14.1-3.9-3.7-10-3.7-13.9,0l-12.9,12.9-12.9-12.9Z"/>
    </g>
  </g>
</svg>