<?xml version="1.0" encoding="UTF-8"?>
<svg xmlns="http://www.w3.org/2000/svg" version="1.1" viewBox="0 0 200 200">
  <defs>
    <style>
      .cls-1 {
        fill: #fff;
        fill-rule: evenodd;
      }
    </style>
  </defs>
  <!-- Generator: Adobe Illustrator 28.6.0, SVG Export Plug-In . SVG Version: 1.2.0 Build 709)  -->
  <g>
    <g id="Layer_1">
      <path class="cls-1" d="M30,50c0-5.5,4.5-10,10-10h120c5.5,0,10,4.5,10,10s-4.5,10-10,10H40c-5.5,0-10-4.5-10-10ZM30,100c0-5.5,4.5-10,10-10h120c5.5,0,10,4.5,10,10s-4.5,10-10,10H40c-5.5,0-10-4.5-10-10ZM30,150c0-5.5,4.5-10,10-10h120c5.5,0,10,4.5,10,10s-4.5,10-10,10H40c-5.5,0-10-4.5-10-10Z"/>
    </g>
  </g>
</svg>