<?xml version="1.0" encoding="UTF-8"?>
<svg xmlns="http://www.w3.org/2000/svg" version="1.1" viewBox="0 0 200 200">
  <defs>
    <style>
      .cls-1 {
        fill: #fff;
      }

      .cls-2 {
        fill: #3e69ff;
        fill-rule: evenodd;
      }
    </style>
  </defs>
  <!-- Generator: Adobe Illustrator 28.6.0, SVG Export Plug-In . SVG Version: 1.2.0 Build 709)  -->
  <g>
    <g id="Layer_1">
      <rect class="cls-1" x="66" y="42" width="71" height="114"/>
      <path class="cls-2" d="M180,100c0,44.2-35.8,80-80,80S20,144.2,20,100,55.8,20,100,20s80,35.8,80,80ZM110,60c0,5.5-4.5,10-10,10s-10-4.5-10-10,4.5-10,10-10,10,4.5,10,10ZM90,90c-5.5,0-10,4.5-10,10s4.5,10,10,10v30c0,5.5,4.5,10,10,10h10c5.5,0,10-4.5,10-10s-4.5-10-10-10v-30c0-5.5-4.5-10-10-10h-10Z"/>
    </g>
  </g>
</svg>