<?xml version="1.0" encoding="UTF-8"?>
<svg xmlns="http://www.w3.org/2000/svg" version="1.1" viewBox="0 0 12 12">
  <defs>
    <style>
      .cls-1 {
        fill: #d9a117;
        fill-rule: evenodd;
      }

      .cls-2 {
        fill: #fff;
      }
    </style>
  </defs>
  <!-- Generator: Adobe Illustrator 28.6.0, SVG Export Plug-In . SVG Version: 1.2.0 Build 709)  -->
  <g>
    <g id="Layer_1">
      <rect class="cls-2" x="4.7" y="2.5" width="2.6" height="7.1"/>
      <path class="cls-1" d="M10.8,6c0,2.7-2.1,4.8-4.8,4.8S1.2,8.7,1.2,6,3.3,1.2,6,1.2s4.8,2.1,4.8,4.8ZM6.6,8.4c0,.3-.3.6-.6.6s-.6-.3-.6-.6.3-.6.6-.6.6.3.6.6ZM6,3c-.3,0-.6.3-.6.6v2.4c0,.3.3.6.6.6s.6-.3.6-.6v-2.4c0-.3-.3-.6-.6-.6Z"/>
    </g>
  </g>
</svg>