<?xml version="1.0" encoding="UTF-8"?>
<svg xmlns="http://www.w3.org/2000/svg" version="1.1" viewBox="0 0 12 12">
  <defs>
    <style>
      .cls-1 {
        fill: #fff;
      }

      .cls-2 {
        fill: #00be1f;
        fill-rule: evenodd;
      }
    </style>
  </defs>
  <!-- Generator: Adobe Illustrator 28.6.0, SVG Export Plug-In . SVG Version: 1.2.0 Build 709)  -->
  <g>
    <g id="Layer_1">
      <rect class="cls-1" x="3.1" y="3.3" width="5.9" height="5.3"/>
      <g id="Layer_1-2" data-name="Layer_1">
        <path class="cls-2" d="M6,10.8c2.7,0,4.8-2.1,4.8-4.8S8.7,1.2,6,1.2,1.2,3.3,1.2,6s2.1,4.8,4.8,4.8ZM8.2,5.2c.2-.2.2-.6,0-.8-.2-.2-.6-.2-.8,0l-2,2-.8-.8c-.2-.2-.6-.2-.8,0s-.2.6,0,.8l1.2,1.2c.2.2.6.2.8,0,0,0,2.4-2.4,2.4-2.4Z"/>
      </g>
    </g>
  </g>
</svg>